#!OML:ASF C:\Vicon Data\Big\jianyuan-12\jianyuan\Session 1\Capture.male.ASF
:FULLY-SPECIFIED
:DEGREES
84
root -9.108411 16.878884 -17.883723 4.428872 -16.386272 5.713197
lowerback -8.009994 0.108908 -2.702709 
upperback 2.821087 0.515722 -0.916207 
thorax 7.456782 0.152125 0.630222 
lowerneck -1.266517 -8.946689 -5.253877 
upperneck 6.927182 -12.423680 9.596330 
head 3.200740 -5.991246 3.257431 
rclavicle 0.000000 0.000000 
rhumerus -31.382886 -26.260224 -80.526869 
rradius 36.356452 
rwrist 35.194431 
rhand -22.509795 -3.962731 
rfingers 0.000000 
rthumb 3.916486 -33.906449 
lclavicle 0.000000 0.000000 
lhumerus -45.354664 36.237655 68.476298 
lradius 28.439760 
lwrist -52.556516 
lhand -8.528883 2.431593 
lfingers 0.000000 
lthumb 17.399885 31.672792 
rfemur -5.833384 3.666781 22.899073 
rtibia 21.302340 
rfoot -26.560298 -1.511051 
rtoes -13.422885 
lfemur -33.617407 -3.254528 -20.748892 
ltibia 42.721814 
lfoot -18.575628 8.848870 
ltoes -14.973397 
85
root -9.129880 16.879116 -17.802313 4.497434 -16.615574 5.716451
lowerback -8.092250 0.157281 -2.671174 
upperback 2.818247 0.583457 -0.963876 
thorax 7.499947 0.187567 0.572477 
lowerneck -1.147374 -8.964452 -5.183460 
upperneck 6.805254 -12.440456 9.552251 
head 3.138872 -6.005877 3.241245 
rclavicle 0.000000 0.000000 
rhumerus -31.119459 -26.122701 -80.762753 
rradius 36.543013 
rwrist 34.842601 
rhand -22.371943 -3.956674 
rfingers 0.000000 
rthumb 4.049642 -33.897917 
lclavicle 0.000000 0.000000 
lhumerus -45.721259 36.362473 68.105969 
lradius 28.368666 
lwrist -52.710117 
lhand -8.575234 2.361797 
lfingers 0.000000 
lthumb 17.355271 31.606935 
rfemur -5.288425 3.596241 22.871249 
rtibia 20.666846 
rfoot -26.399183 -1.334259 
rtoes -13.933382 
lfemur -33.666816 -3.658210 -20.623352 
ltibia 40.993449 
lfoot -18.431608 8.986947 
ltoes -15.212207 
86
root -9.151550 16.884035 -17.722442 4.565779 -16.893973 5.736021
lowerback -8.178297 0.151306 -2.705718 
upperback 2.837429 0.579488 -0.918870 
thorax 7.569699 0.181665 0.639124 
lowerneck -1.217374 -8.868944 -5.335057 
upperneck 6.780741 -12.298816 9.469024 
head 3.136182 -5.941922 3.244607 
rclavicle 0.000000 0.000000 
rhumerus -30.749221 -25.786957 -80.927573 
rradius 36.610478 
rwrist 34.746182 
rhand -22.562794 -3.873940 
rfingers 0.000000 
rthumb 3.865328 -33.818636 
lclavicle 0.000000 0.000000 
lhumerus -46.149943 36.776313 67.770882 
lradius 28.302841 
lwrist -52.833290 
lhand -8.463100 2.198956 
lfingers 0.000000 
lthumb 17.463225 31.434584 
rfemur -4.733177 3.593589 22.824418 
rtibia 19.992616 
rfoot -26.239877 -1.194848 
rtoes -14.095443 
lfemur -33.708947 -3.992264 -20.484568 
ltibia 39.266891 
lfoot -18.332770 8.958799 
ltoes -15.309247 
87
root -9.177616 16.885228 -17.642298 4.731052 -17.073404 5.575246
lowerback -8.385144 0.160913 -2.616550 
upperback 2.892571 0.588246 -0.883208 
thorax 7.748618 0.186586 0.629009 
lowerneck -1.308004 -8.823475 -5.273043 
upperneck 6.708762 -12.230277 9.434743 
head 3.118488 -5.907271 3.226107 
rclavicle 0.000000 0.000000 
rhumerus -30.378059 -25.476151 -81.226744 
rradius 36.799976 
rwrist 34.621871 
rhand -22.619597 -4.035206 
rfingers 0.000000 
rthumb 3.810450 -33.980894 
lclavicle 0.000000 0.000000 
lhumerus -46.331990 36.959518 67.584224 
lradius 28.231944 
lwrist -53.093406 
lhand -8.431069 2.364485 
lfingers 0.000000 
lthumb 17.494012 31.597301 
rfemur -4.152184 3.659435 23.004123 
rtibia 19.207598 
rfoot -26.085203 -1.207106 
rtoes -14.136136 
lfemur -33.809322 -4.318093 -20.126781 
ltibia 37.552279 
lfoot -18.277340 8.788949 
ltoes -15.262931 
88
root -9.199571 16.889627 -17.559813 4.736064 -17.270302 5.495329
lowerback -8.354310 0.220416 -2.485895 
upperback 2.895478 0.655517 -0.931309 
thorax 7.733368 0.227378 0.514737 
lowerneck -1.251277 -8.797728 -5.223570 
upperneck 6.667083 -12.198385 9.475926 
head 3.093860 -5.891471 3.236257 
rclavicle 0.000000 0.000000 
rhumerus -30.188614 -25.367558 -81.484042 
rradius 37.020097 
rwrist 34.135242 
rhand -22.541863 -4.004918 
rfingers 0.000000 
rthumb 3.885521 -33.949215 
lclavicle 0.000000 0.000000 
lhumerus -46.661788 37.055188 67.153653 
lradius 28.096754 
lwrist -53.430395 
lhand -8.410103 2.309835 
lfingers 0.000000 
lthumb 17.514181 31.540915 
rfemur -3.402007 3.630007 23.074230 
rtibia 18.394592 
rfoot -25.916715 -1.161887 
rtoes -14.390280 
lfemur -33.773301 -4.661355 -19.899364 
ltibia 35.848002 
lfoot -18.176388 8.753164 
ltoes -15.460972 
89
root -9.221853 16.891343 -17.478199 4.835429 -17.409883 5.479099
lowerback -8.421298 0.204636 -2.479847 
upperback 2.872349 0.634890 -0.926341 
thorax 7.747862 0.217337 0.513905 
lowerneck -1.314318 -8.778518 -5.176960 
upperneck 6.756309 -12.166378 9.303159 
head 3.114989 -5.876436 3.175103 
rclavicle 0.000000 0.000000 
rhumerus -29.930637 -25.118794 -81.679313 
rradius 37.222392 
rwrist 33.655181 
rhand -22.463909 -3.912343 
rfingers 0.000000 
rthumb 3.960806 -33.855264 
lclavicle 0.000000 0.000000 
lhumerus -47.136021 37.455662 66.624745 
lradius 27.986097 
lwrist -53.762634 
lhand -8.405741 2.205976 
lfingers 0.000000 
lthumb 17.518371 31.436660 
rfemur -2.760316 3.656600 23.083743 
rtibia 17.553722 
rfoot -25.792715 -1.191815 
rtoes -14.452627 
lfemur -33.828549 -4.946998 -19.758964 
ltibia 34.135071 
lfoot -18.030462 8.539496 
ltoes -15.825731 
90
root -9.247235 16.893451 -17.395052 4.997192 -17.549979 5.457030
lowerback -8.549465 0.223739 -2.485997 
upperback 2.811144 0.665390 -0.946753 
thorax 7.755814 0.232655 0.501206 
lowerneck -1.301532 -8.772763 -5.092376 
upperneck 6.775780 -12.156880 9.221192 
head 3.107880 -5.872139 3.138904 
rclavicle 0.000000 0.000000 
rhumerus -29.753654 -25.071387 -81.818277 
rradius 37.307528 
rwrist 33.717911 
rhand -22.466075 -3.979731 
rfingers 0.000000 
rthumb 3.958691 -33.922704 
lclavicle 0.000000 0.000000 
lhumerus -47.450240 37.474642 66.314152 
lradius 27.891846 
lwrist -53.979739 
lhand -8.391363 2.277360 
lfingers 0.000000 
lthumb 17.532247 31.506821 
rfemur -2.198003 3.620870 23.094322 
rtibia 16.751417 
rfoot -25.621652 -1.185233 
rtoes -14.415135 
lfemur -33.944682 -5.133627 -19.633088 
ltibia 32.428415 
lfoot -17.767684 8.265431 
ltoes -16.339795 
91
root -9.270972 16.892255 -17.310660 5.090234 -17.737118 5.359138
lowerback -8.590524 0.214916 -2.454248 
upperback 2.785277 0.643928 -0.865369 
thorax 7.751611 0.221404 0.566162 
lowerneck -1.321575 -8.699039 -5.231117 
upperneck 6.769662 -12.050907 9.192261 
head 3.107899 -5.824212 3.156366 
rclavicle 0.000000 0.000000 
rhumerus -29.606223 -24.681514 -81.915685 
rradius 37.597172 
rwrist 33.281206 
rhand -22.460944 -4.080017 
rfingers 0.000000 
rthumb 3.963667 -34.022864 
lclavicle 0.000000 0.000000 
lhumerus -47.901939 37.815164 65.932675 
lradius 27.764235 
lwrist -54.261406 
lhand -8.299318 2.266384 
lfingers 0.000000 
lthumb 17.620845 31.487892 
rfemur -1.522273 3.320389 23.141224 
rtibia 15.891633 
rfoot -25.352263 -0.835180 
rtoes -14.602131 
lfemur -33.978402 -5.285337 -19.443329 
ltibia 30.784767 
lfoot -17.468772 8.040977 
ltoes -15.657098 
